<svg width="151" height="46" viewBox="0 0 151 46" fill="none" xmlns="http://www.w3.org/2000/svg">
<g clip-path="url(#clip0_622_971)">
<path d="M63.1098 36.5799C63.749 36.5799 64.2596 36.7534 64.6456 37.1047C65.0316 37.4559 65.2226 37.9172 65.2226 38.4927C65.2226 39.0682 65.0316 39.538 64.6456 39.8807C64.2596 40.2235 63.749 40.397 63.1098 40.397H62.8524V42.1363H61.6777V36.5757H63.1098V36.5799ZM63.0766 39.3518C63.7034 39.3518 64.0188 39.064 64.0188 38.4927C64.0188 38.2346 63.94 38.0314 63.7781 37.8918C63.6162 37.7521 63.3837 37.6802 63.0766 37.6802H62.8524V39.3475H63.0766V39.3518Z" fill="#D7A45C"/>
<path d="M66.6757 36.5798H67.9376L69.3489 42.1405H68.1949L67.9625 41.0825H66.6632L66.4225 42.1405H65.2686L66.6798 36.5798H66.6757ZM67.7508 40.1007L67.3066 38.1371L66.8625 40.1007H67.7508Z" fill="#D7A45C"/>
<path d="M70.1912 37.2061C70.5482 36.7153 71.0256 36.4656 71.6233 36.4656C72.2833 36.4656 72.7897 36.7237 73.1425 37.2442L72.3621 38.006C72.1629 37.714 71.9346 37.5701 71.6772 37.5701C71.121 37.5701 70.8429 38.1668 70.8429 39.3644C70.8429 40.562 71.121 41.1375 71.6772 41.1375C71.9512 41.1375 72.1878 40.9936 72.387 40.7016L73.1425 41.4718C72.7897 41.9923 72.2833 42.2505 71.6233 42.2505C71.0256 42.2505 70.5482 42.005 70.1871 41.5057C69.8259 41.0106 69.6475 40.2954 69.6475 39.3644C69.6475 38.4334 69.8301 37.7013 70.1912 37.2019V37.2061Z" fill="#D7A45C"/>
<path d="M73.8232 36.5798H74.9979V38.573L76.1602 36.5798H77.5009L76.0273 39.0047L77.5715 42.1405H76.2764L75.3259 40.1854L74.9979 40.7101V42.1405H73.8232V36.5798Z" fill="#D7A45C"/>
<path d="M79.4931 36.5798H80.7549L82.1662 42.1405H81.0123L80.7798 41.0825H79.4806L79.2399 42.1405H78.0859L79.4972 36.5798H79.4931ZM80.5682 40.1007L80.124 38.1371L79.6799 40.1007H80.5682Z" fill="#D7A45C"/>
<path d="M83.0335 37.2148C83.4071 36.7154 83.8969 36.47 84.4988 36.47C85.1006 36.47 85.6029 36.7281 86.0802 37.2486L85.3082 38.0104C85.0799 37.7184 84.8308 37.5745 84.561 37.5745C84.3161 37.5745 84.1044 37.7099 83.9301 37.9765C83.7516 38.2431 83.6644 38.7086 83.6644 39.3688C83.6644 40.0289 83.7516 40.5198 83.9259 40.7949C84.1003 41.0657 84.312 41.2054 84.561 41.2054C84.7105 41.2054 84.8433 41.1588 84.9595 41.0615V39.8639H84.3991V38.8694H86.0802V41.4762C85.9101 41.7301 85.6818 41.9248 85.4037 42.056C85.1214 42.1872 84.8225 42.2549 84.4988 42.2549C83.8844 42.2549 83.3946 42.0094 83.0211 41.5101C82.6516 41.015 82.4648 40.2998 82.4648 39.3688C82.4648 38.4378 82.6558 37.7141 83.0335 37.2148Z" fill="#D7A45C"/>
<path d="M86.9277 36.5798H89.6715V37.6843H88.1066V38.8354H89.4058V39.8849H88.1066V41.0275H89.6715V42.1405H86.9277V36.5798Z" fill="#D7A45C"/>
<path d="M90.4883 36.5799H92.0158C92.6177 36.5799 93.1324 36.8296 93.5558 37.3289C93.9792 37.8283 94.1908 38.5096 94.1908 39.3645C94.1908 40.2193 93.9792 40.8921 93.5558 41.3915C93.1324 41.8909 92.6177 42.1363 92.0158 42.1363H90.4883V36.5757V36.5799ZM91.8996 41.0276C92.2067 41.0276 92.4641 40.8837 92.6758 40.5959C92.8875 40.3082 92.9912 39.8977 92.9912 39.3687C92.9912 38.8397 92.8875 38.4208 92.6758 38.1245C92.4641 37.8325 92.2067 37.6844 91.8996 37.6844H91.6671V41.0276H91.8996Z" fill="#D7A45C"/>
<path d="M96.7852 36.5799H98.3127C98.9146 36.5799 99.4293 36.8296 99.8526 37.3289C100.276 37.8283 100.488 38.5096 100.488 39.3645C100.488 40.2193 100.276 40.8921 99.8526 41.3915C99.4293 41.8909 98.9146 42.1363 98.3127 42.1363H96.7852V36.5757V36.5799ZM98.1965 41.0276C98.5036 41.0276 98.761 40.8837 98.9727 40.5959C99.1844 40.3082 99.2881 39.8977 99.2881 39.3687C99.2881 38.8397 99.1844 38.4208 98.9727 38.1245C98.761 37.8325 98.5036 37.6844 98.1965 37.6844H97.964V41.0276H98.1965Z" fill="#D7A45C"/>
<path d="M102.737 36.5798C103.377 36.5798 103.887 36.7533 104.273 37.1003C104.659 37.4474 104.85 37.9086 104.85 38.4884C104.85 39.2543 104.514 39.7791 103.837 40.0626L105.029 42.1447H103.713L102.725 40.325H102.468V42.1447H101.293V36.5841H102.742L102.737 36.5798ZM102.704 39.3348C103.007 39.3348 103.24 39.2586 103.402 39.1105C103.563 38.9624 103.647 38.755 103.647 38.4842C103.647 37.9509 103.331 37.6801 102.704 37.6801H102.464V39.3305H102.704V39.3348Z" fill="#D7A45C"/>
<path d="M106.914 42.1405H105.739V36.5798H106.914V42.1405Z" fill="#D7A45C"/>
<path d="M107.831 36.5798H108.96L110.268 39.5125V36.5798H111.442V42.1405H110.322L109.006 39.2417V42.1405H107.831V36.5798Z" fill="#D7A45C"/>
<path d="M112.368 36.5798H113.543V38.573L114.705 36.5798H116.046L114.572 39.0047L116.116 42.1405H114.821L113.871 40.1854L113.543 40.7101V42.1405H112.368V36.5798Z" fill="#D7A45C"/>
<path d="M118.038 42.1405H116.863V36.5798H118.038V42.1405Z" fill="#D7A45C"/>
<path d="M118.96 36.5798H120.089L121.397 39.5125V36.5798H122.571V42.1405H121.45L120.135 39.2417V42.1405H118.96V36.5798Z" fill="#D7A45C"/>
<path d="M123.945 37.2148C124.318 36.7154 124.808 36.47 125.41 36.47C126.012 36.47 126.514 36.7281 126.991 37.2486L126.219 38.0104C125.991 37.7184 125.742 37.5745 125.472 37.5745C125.227 37.5745 125.016 37.7099 124.841 37.9765C124.663 38.2431 124.576 38.7086 124.576 39.3688C124.576 40.0289 124.663 40.5198 124.837 40.7949C125.011 41.0657 125.223 41.2054 125.472 41.2054C125.622 41.2054 125.754 41.1588 125.871 41.0615V39.8639H125.31V38.8694H126.991V41.4762C126.821 41.7301 126.593 41.9248 126.315 42.056C126.033 42.1872 125.734 42.2549 125.41 42.2549C124.796 42.2549 124.306 42.0094 123.932 41.5101C123.563 41.015 123.376 40.2998 123.376 39.3688C123.376 38.4378 123.567 37.7141 123.945 37.2148Z" fill="#D7A45C"/>
<path d="M129.398 36.5798H130.573L131.167 39.8468L131.877 36.5671H132.798L133.508 39.8468L134.101 36.5798H135.276L134.068 42.1405H133.147L132.337 38.4461L131.536 42.1405H130.615L129.398 36.5798Z" fill="#D7A45C"/>
<path d="M136.593 36.5798H137.855L139.266 42.1405H138.112L137.879 41.0825H136.58L136.339 42.1405H135.186L136.597 36.5798H136.593ZM137.668 40.1007L137.224 38.1371L136.779 40.1007H137.668Z" fill="#D7A45C"/>
<path d="M139.216 36.5798H142.628V37.6843H141.515V42.1405H140.341V37.6843H139.22V36.5798H139.216Z" fill="#D7A45C"/>
<path d="M143.399 36.5798H146.143V37.6843H144.578V38.8354H145.877V39.8849H144.578V41.0275H146.143V42.1405H143.399V36.5798Z" fill="#D7A45C"/>
<path d="M148.41 36.5798C149.05 36.5798 149.56 36.7533 149.946 37.1003C150.332 37.4474 150.523 37.9086 150.523 38.4884C150.523 39.2543 150.187 39.7791 149.51 40.0626L150.702 42.1447H149.386L148.398 40.325H148.141V42.1447H146.966V36.5841H148.414L148.41 36.5798ZM148.381 39.3348C148.684 39.3348 148.917 39.2586 149.079 39.1105C149.24 38.9624 149.324 38.755 149.324 38.4842C149.324 37.9509 149.008 37.6801 148.381 37.6801H148.141V39.3305H148.381V39.3348Z" fill="#D7A45C"/>
<path d="M56.6593 28.2643C57.4273 27.5661 58.2076 26.8805 58.9589 26.1611C60.7521 24.443 62.4415 22.6318 63.6618 20.4312C63.9981 19.8261 64.2056 19.1447 64.4298 18.4803C64.7452 17.5324 64.9901 17.3251 65.9739 17.3166C66.1814 17.3166 66.3931 17.3166 66.6007 17.3335C68.0327 17.4436 68.5433 18.1206 68.0784 19.4875C67.3976 21.4849 66.6173 23.4527 65.8867 25.4332C65.7124 25.9072 65.5588 26.3939 65.5463 26.9567C66.0776 26.2965 66.5882 25.6152 67.1444 24.9762C68.7633 23.1057 70.3406 21.1845 72.3828 19.7711C72.8436 19.4537 73.5035 19.3013 74.0681 19.3098C75.0933 19.3267 75.579 20.1731 75.5001 21.2226C75.3382 23.4062 75.222 25.5983 75.1846 27.7861C75.1722 28.5775 75.2801 29.4662 76.2639 29.7963C77.0774 30.0713 77.6585 29.5974 78.2065 29.1446C79.4268 28.1332 80.2902 26.8255 81.0456 25.4332C81.9007 23.8548 82.6603 22.1959 83.698 20.7444C85.0678 18.8316 86.8319 17.4562 89.3847 17.6001C91.7715 17.7355 92.4315 19.8599 92.1492 21.5527C92.0205 22.3271 91.6968 22.9915 91.0036 23.402C90.2938 23.8209 89.9243 23.6051 89.8828 22.7884C89.8538 22.2298 89.8704 21.6458 89.7002 21.1295C89.4387 20.3508 88.8949 20.2196 88.2142 20.6809C87.0519 21.468 86.0972 22.5133 85.5452 23.7828C84.8852 25.2978 84.4493 26.9144 83.9678 28.5056C83.806 29.043 83.7437 29.7074 84.2543 30.0798C84.8022 30.4776 85.375 30.1306 85.8565 29.7963C87.1972 28.8737 87.8987 27.4645 88.6085 26.0511C88.8285 25.6152 89.1357 25.1286 89.5342 24.8958C90.1941 24.5107 90.9413 24.6334 91.5556 25.1201C92.1201 25.5687 91.8005 26.2119 91.7881 26.7705C91.7715 27.3799 91.6469 27.9893 91.676 28.5944C91.7217 29.517 92.2073 29.9148 93.0624 29.627C93.768 29.39 94.4654 29.0007 95.0465 28.5309C96.9351 27.016 98.143 24.9508 99.4007 22.9026C100.692 20.7909 100.451 18.7385 99.5709 16.6437C99.1268 15.5942 98.5664 14.5871 97.9812 13.6095C97.8483 13.3852 97.3793 13.216 97.1012 13.2583C93.6767 13.7788 90.2606 14.3543 86.8402 14.8875C84.6943 15.2218 82.5441 15.5138 80.394 15.7974C76.8782 16.2586 73.3541 16.5295 69.8134 16.1867C68.9957 16.1063 68.1614 15.9116 67.4059 15.59C65.6044 14.824 65.4094 12.6827 66.8289 11.3201C68.9293 9.29728 71.5194 8.40436 74.2299 7.9177C78.8332 7.09249 83.4864 7.21522 88.1063 7.75689C90.5926 8.04889 93.0665 8.57363 95.3993 9.58081C96.0136 9.84741 96.6404 10.114 97.2049 10.4695C97.7404 10.808 98.2634 10.8588 98.857 10.77C100.156 10.5753 101.468 10.4399 102.767 10.2283C102.995 10.1902 103.327 9.92782 103.361 9.72469C103.651 8.01503 103.9 6.29691 104.129 4.57455C104.17 4.2614 104.066 3.93132 104.025 3.54199C105.067 3.26692 106.133 3.05533 107.209 3.30501C107.976 3.48697 108.267 4.21908 108.221 4.90041C108.134 6.2292 107.893 7.5453 107.698 8.86563C107.648 9.20418 107.532 9.53003 107.424 9.95744C108.392 9.91512 109.263 9.86434 110.131 9.84318C113.252 9.76701 116.374 9.63582 119.491 9.65698C121.558 9.66968 123.625 9.8982 125.692 10.0336C126.68 10.0971 127.676 10.1309 128.66 10.2452C130.682 10.478 132.691 10.7911 134.455 11.9422C135.297 12.4923 135.895 13.2625 136.19 14.2485C136.572 15.535 135.385 16.9611 134.119 16.7538C134.351 15.133 133.305 14.2443 131.308 13.7365C128.83 13.1059 126.294 12.5516 123.754 12.3823C119.86 12.1199 115.946 12.1834 112.04 12.158C110.517 12.1495 108.993 12.3019 107.47 12.34C106.955 12.3527 106.727 12.5262 106.553 13.0467C105.461 16.2967 104.278 19.5171 103.211 22.7757C102.182 25.9199 101.19 29.0811 100.762 32.3861C100.717 32.7374 100.75 33.0929 100.717 33.4483C100.688 33.77 100.617 34.0873 100.563 34.409C100.069 34.2905 99.4713 34.3116 99.0977 34.0323C98.2012 33.3595 98.2427 32.293 98.3755 31.307C98.5789 29.7751 98.8736 28.2559 99.1517 26.6012C98.9608 26.8424 98.8113 27.0117 98.6785 27.1979C97.537 28.7849 96.2959 30.2787 94.619 31.307C93.3446 32.0899 91.9873 32.4539 90.5138 31.9333C89.696 31.6456 89.1315 31.1039 88.8908 30.2364C88.8493 30.084 88.7662 29.9444 88.6708 29.7328C87.7451 30.9769 86.7074 32.0053 85.3459 32.6231C84.4286 33.0421 83.4656 33.3722 82.4694 32.9617C81.1992 32.4412 80.5974 31.4171 80.5351 30.0375C80.5268 29.8344 80.5102 29.6312 80.5019 29.4281C80.4396 29.3773 80.3732 29.3265 80.3109 29.28C80.2238 29.4366 80.1532 29.6058 80.0453 29.7413C79.2608 30.723 78.3144 31.5059 77.1853 32.0476C75.2469 32.9786 72.9888 32.1788 72.2334 29.9444C71.7685 28.5606 71.6357 27.1471 71.8183 25.6914C71.9013 25.027 71.8556 24.3499 71.8722 23.5374C71.5651 23.7659 71.287 23.8929 71.1168 24.1087C69.801 25.776 68.5059 27.4645 67.2025 29.1446C66.4886 30.0671 65.8037 31.0193 65.0358 31.8953C64.4796 32.53 63.749 32.9744 62.869 32.6316C61.9724 32.2803 61.6113 31.4467 61.5532 30.5622C61.5034 29.7793 61.5906 28.9584 61.7691 28.1924C62.0015 27.1895 62.3834 26.2204 62.6905 25.2386C62.7196 25.1413 62.6988 25.0228 62.703 24.8831C62.6075 24.9381 62.537 24.9593 62.4913 25.0058C60.4117 26.9821 58.3321 28.9584 56.265 30.9516C56.0824 31.1293 55.9412 31.4044 55.8831 31.6583C55.1484 34.8618 54.1564 37.9637 52.4296 40.7736C51.313 42.5933 50.0097 44.231 48.1376 45.3059C47.1497 45.873 46.1162 46.1523 44.9498 45.9322C43.1358 45.5937 42.5174 43.6767 42.7498 42.3902C42.9781 41.1249 43.5385 39.9865 44.4101 39.1021C46.2282 37.2612 48.1335 35.5092 50.0263 33.7446C50.624 33.1902 51.2466 32.6401 51.9315 32.2126C52.936 31.5863 53.347 30.6765 53.4756 29.5508C53.5504 28.8991 53.6707 28.2559 53.7994 27.3968C53.5213 27.6761 53.3594 27.8327 53.1975 27.9977C51.5828 29.6482 50.0927 31.4467 48.0671 32.6189C47.5358 32.9278 46.9297 33.1902 46.332 33.2706C44.6883 33.4864 43.7045 32.6485 43.4679 30.9516C43.443 30.7696 43.4389 30.5876 43.4181 30.3125C42.8702 30.8119 42.3928 31.2774 41.8864 31.7091C40.9442 32.5046 39.8401 32.8982 38.628 32.9363C36.9012 32.9913 35.5356 31.7344 35.2575 29.8597C35.0209 28.277 35.4235 26.7663 35.8843 25.2894C36.4156 23.5924 37.088 21.9378 37.6069 20.2366C37.7812 19.6695 37.6359 19.0093 37.6941 18.3957C37.7107 18.218 37.9099 17.926 38.0427 17.9133C39.1303 17.8202 40.1223 18.1333 40.8778 18.9374C41.5046 19.5976 41.5045 20.4058 41.1476 21.2395C40.4876 22.7926 39.8027 24.3372 39.2299 25.9284C38.8521 26.9821 38.5989 28.0908 38.3956 29.1953C38.2918 29.7539 38.2835 30.4268 38.8812 30.7823C39.4582 31.1251 40.0517 30.9769 40.5831 30.613C42.2351 29.4704 43.3517 27.8539 44.3147 26.123C45.1573 24.6123 45.8754 23.0296 46.7388 21.5357C47.652 19.9615 48.8225 18.5608 50.4081 17.6721C51.201 17.2277 52.1889 17.0246 53.1062 16.9611C54.2352 16.8807 55.2148 18.0148 55.5013 19.5045C55.5967 19.9996 55.7088 20.3043 56.2858 20.4566C57.0454 20.6555 57.3484 21.413 57.2903 22.1409C57.1699 23.7321 56.9333 25.3105 56.7341 26.8975C56.6801 27.3249 56.5846 27.7481 56.5058 28.1755C56.5639 28.2093 56.6178 28.2432 56.6759 28.277L56.6593 28.2643ZM95.1835 11.464C95.0797 11.3159 95.0507 11.2397 95.0008 11.2101C94.7974 11.1 94.5941 10.9773 94.3782 10.9011C91.9167 10.0252 89.3557 9.62736 86.7697 9.49194C84.5282 9.37345 82.266 9.33113 80.0328 9.50887C77.8578 9.68237 75.6869 10.0844 73.5533 10.5584C72.2583 10.8461 70.9881 11.4047 70.0334 12.4288C69.3776 13.1313 69.5395 13.7449 70.4693 13.8634C71.81 14.0369 73.1756 14.1173 74.5246 14.0623C76.7952 13.9734 79.0781 13.8592 81.3279 13.5545C85.9229 12.9324 90.5013 12.1749 95.1793 11.4597L95.1835 11.464ZM54.1522 23.0169C54.1024 22.9915 54.0568 22.9703 54.0069 22.9449C53.9986 22.6402 54.0152 22.3271 53.9696 22.0266C53.9198 21.705 53.8326 21.3834 53.7247 21.0745C53.3968 20.135 52.5334 19.8345 51.7198 20.3931C51.3794 20.6259 51.0349 20.8967 50.7942 21.2268C50.2006 22.0393 49.6859 22.9068 49.1089 23.7278C48.0754 25.2005 47.515 26.9017 46.9007 28.569C46.7844 28.878 46.8218 29.2588 46.8509 29.6058C46.8965 30.2152 47.2825 30.393 47.7723 30.139C48.3244 29.8555 48.918 29.5593 49.3372 29.1192C50.7693 27.6169 52.1598 26.0723 53.5088 24.4895C53.8409 24.1002 53.9405 23.512 54.1481 23.0169H54.1522ZM52.33 34.4259C52.2843 34.3963 52.2387 34.3709 52.193 34.3413C52.0809 34.4132 51.9647 34.4767 51.8651 34.5613C50.4621 35.7885 48.9885 36.9438 47.6852 38.2726C46.6848 39.2925 45.8713 40.5113 45.0411 41.6877C44.709 42.1617 44.6468 42.8134 45.1573 43.2323C45.6388 43.6301 46.249 43.5159 46.718 43.1858C47.2825 42.788 47.8263 42.3267 48.2705 41.7977C49.827 39.9611 50.9021 37.824 51.8609 35.6235C52.0311 35.2299 52.1723 34.8237 52.3258 34.4217L52.33 34.4259ZM99.7328 12.8605C100.376 14.477 100.995 16.0301 101.617 17.6001C102.045 15.9328 102.477 14.2316 102.941 12.4161C101.725 12.5854 100.663 12.7335 99.7328 12.8647V12.8605ZM0.145378 38.078C0.539709 39.1655 1.21215 40.0331 2.14194 40.7229C4.72793 42.6441 7.74145 43.1096 10.7965 43.3212C15.0511 43.6174 19.1729 42.8515 23.1744 41.3957C26.1754 40.3039 28.8818 38.7043 31.1232 36.3768C34.1202 33.2621 34.0039 28.7764 29.8655 26.3092C27.5743 24.9424 25.0962 24.0664 22.5932 23.2454C20.2397 22.4752 17.8363 21.8658 15.5119 21.0321C14.2002 20.5624 12.9093 19.9022 11.7719 19.094C10.4561 18.1587 10.3565 16.8426 11.3112 15.5181C11.884 14.7267 12.4942 13.9269 13.2164 13.2837C18.8782 8.24778 25.4532 5.15008 32.85 3.89323C34.3402 3.63932 35.8843 3.65202 37.4035 3.68587C38.4371 3.70703 38.8937 4.45606 38.5367 5.44631C38.2876 6.1361 37.9722 6.8809 37.4741 7.38026C34.9005 9.96591 32.0074 12.1284 28.6327 13.491C26.9973 14.1512 25.2788 15.1372 23.4608 13.8846C22.6057 15.6323 23.6725 17.7652 25.5362 18.0572C26.6237 18.2264 27.678 18.0106 28.641 17.5451C32.4308 15.717 35.8843 13.3641 38.8895 10.3722C40.0601 9.20841 40.9815 7.87115 41.4506 6.23343C42.0151 4.26563 41.434 2.53481 39.865 1.4557C38.3956 0.452751 36.7601 -0.0212137 35.0334 -5.45739e-05C33.5307 0.0168727 32.0157 0.160755 30.5421 0.440056C28.7074 0.787066 26.8603 1.18909 25.1128 1.82386C21.1861 3.24576 17.4794 5.15008 14.0632 7.62147C12.0625 9.06876 10.0659 10.5033 8.54257 12.505C7.71655 13.5884 6.88637 14.6886 6.61657 16.0597C6.14752 18.4338 7.19769 20.1773 9.01577 21.5188C10.8131 22.8434 12.8636 23.6643 14.9473 24.3626C17.6205 25.2597 20.3352 26.0342 23.0083 26.9313C24.6562 27.4815 26.2709 28.1501 27.595 29.3519C28.8029 30.448 29.1391 31.8022 28.3588 33.2283C27.8856 34.0916 27.238 34.921 26.495 35.5516C24.2909 37.4305 21.6427 38.4842 18.9156 39.2332C15.5741 40.1516 12.1497 40.4816 8.68785 40.0923C7.0026 39.9019 5.35886 39.5506 3.85625 38.6873C2.06307 37.6548 1.59818 36.2667 2.46156 34.3582C0.805364 34.4301 -0.431592 36.4656 0.149528 38.078H0.145378ZM150.697 24.8916C151.058 25.6533 151.116 26.4235 150.751 27.071C150.299 27.875 149.734 28.6452 149.087 29.2884C146.704 31.6498 143.827 32.9278 140.49 32.6401C137.834 32.4115 136.285 30.8669 136.165 27.985C136.144 27.4688 136.182 26.9525 136.19 26.3854C133.886 25.7972 131.798 24.7942 129.955 23.0338C129.652 23.8886 129.349 24.6377 129.117 25.4121C128.627 27.054 128.15 28.7002 127.718 30.3591C127.61 30.7738 127.705 31.2436 127.689 31.6837C127.676 32.001 127.735 32.5046 127.577 32.5935C127.236 32.7882 126.738 32.9194 126.381 32.8093C125.609 32.5723 125.157 31.8953 125.14 31.0997C125.111 29.8724 125.227 28.6452 125.277 27.4941C125.244 27.5407 125.103 27.7227 124.966 27.9131C123.712 29.6185 122.301 31.1758 120.209 31.7344C119.379 31.9545 118.378 31.9926 117.582 31.726C116.162 31.252 115.963 29.8724 115.896 28.5352C115.871 28.0781 115.909 27.6211 115.921 27.0033C115.203 27.9681 114.663 28.8483 113.974 29.5847C112.829 30.8161 111.571 31.9884 109.869 32.3015C107.113 32.8093 105.229 31.3705 105.693 28.3744C106.021 26.25 106.669 24.1722 107.221 22.0859C107.661 20.4101 108.172 18.7554 108.682 16.9907C109.994 16.5676 111.621 17.3674 111.766 18.7681C111.833 19.4029 111.55 20.0927 111.347 20.7317C110.65 22.9153 109.911 25.0905 109.205 27.2699C109.105 27.5703 109.076 27.9046 109.068 28.2263C109.051 28.878 109.545 29.28 110.239 29.1742C111.222 29.0261 111.99 28.4632 112.65 27.7438C114.207 26.0469 115.195 23.9902 116.116 21.8997C116.552 20.9137 116.93 19.898 117.312 18.8866C117.486 18.4253 117.718 18.2476 118.25 18.3195C120.296 18.6031 120.753 19.8938 120.039 21.9885C119.408 23.8294 119.13 25.7168 118.951 27.6338C118.931 27.8623 118.918 28.1332 119.009 28.3278C119.221 28.7679 119.441 29.4493 119.769 29.5212C120.221 29.6228 120.873 29.3773 121.272 29.0642C123.791 27.0498 125.202 24.2653 126.473 21.3411C127 20.1308 127.195 18.8993 127.469 17.6551C127.643 16.8596 128.029 16.1825 128.959 16.1486C129.839 16.1148 130.366 16.6522 130.698 17.4182C130.835 17.7398 131.018 18.0953 130.997 18.4211C130.889 19.9953 131.943 20.8671 132.927 21.7346C133.903 22.6022 135.052 23.2073 136.294 23.6305C136.717 23.7744 136.904 23.7236 137.091 23.2962C138.016 21.1549 139.315 19.2505 141.1 17.8075C142.889 16.356 144.861 15.1541 147.306 15.2642C149.095 15.3446 149.917 16.2629 149.917 18.1164C149.917 20.939 148.36 22.8688 146.156 24.3203C144.33 25.5179 142.354 26.3431 140.171 26.6097C139.975 26.6351 139.668 26.9736 139.66 27.1725C139.602 29.0938 140.681 30.2068 142.835 30.1687C145.131 30.1306 146.974 29.0303 148.493 27.3206C149.203 26.5251 149.925 25.7464 150.71 24.8873L150.697 24.8916ZM140.137 24.0621C140.561 24.041 140.768 24.0537 140.963 24.0198C142.844 23.694 144.483 22.8561 145.965 21.6415C146.745 21.0025 147.331 20.2281 147.555 19.2421C147.642 18.8528 147.613 18.2476 147.381 18.0191C147.144 17.7863 146.534 17.7567 146.173 17.8837C145.446 18.1418 144.678 18.455 144.101 18.9501C143.147 19.7753 142.267 20.7148 141.47 21.705C140.947 22.3525 140.627 23.1735 140.137 24.0621ZM44.0656 11.7475C43.746 11.4597 43.3268 11.2735 42.9283 11.1C41.9694 10.6811 41.268 10.9646 40.9027 11.9676C40.6246 12.7335 40.4544 13.5376 40.2095 14.3162C40.0268 14.896 40.2095 15.3361 40.6702 15.6577C41.1683 16.009 41.7578 16.0936 42.2185 15.7C42.974 15.0568 43.6588 14.3247 44.3396 13.5968C44.5139 13.4106 44.5596 13.0975 44.7173 12.7251C44.5139 12.3992 44.3562 11.9972 44.0739 11.7433L44.0656 11.7475Z" fill="#01432B"/>
</g>
<defs>
<clipPath id="clip0_622_971">
<rect width="151" height="46" fill="white"/>
</clipPath>
</defs>
</svg>
